<svg xmlns="http://www.w3.org/2000/svg" width="682.667" height="682.667" preserveAspectRatio="xMidYMid meet" version="1.0" viewBox="0 0 512 512"><metadata>Created by potrace 1.14, written by Peter Selinger 2001-2017</metadata><g fill="#000" stroke="none"><path d="M2378 5116 c-1 -2 -39 -6 -82 -10 -44 -4 -82 -9 -85 -11 -4 -2 -34 -7 -66 -10 -117 -14 -472 -111 -499 -136 -6 -5 -16 -9 -23 -9 -14 0 -87 -32 -214 -95 -296 -144 -624 -407 -829 -664 -19 -24 -39 -49 -45 -55 -88 -101 -246 -369 -323 -546 -61 -142 -131 -351 -146 -443 -3 -15 -7 -35 -10 -45 -3 -9 -7 -34 -11 -56 -3 -21 -7 -41 -9 -45 -4 -6 -12 -68 -26 -201 -8 -81 -5 -463 5 -520 3 -19 13 -78 21 -130 142 -876 746 -1626 1580 -1958 197 -79 418 -137 604 -158 30 -3 76 -10 102 -14 49 -7 473 -5 518 4 14 2 45 7 70 10 25 4 92 16 150 27 58 12 115 23 128 25 38 7 320 103 370 125 404 181 734 431 991 750 275 340 472 776 536 1189 4 25 9 52 10 61 19 104 27 466 13 609 -60 597 -321 1143 -755 1575 -201 202 -487 397 -748 511 -44 20 -89 39 -100 44 -86 38 -365 119 -465 134 -19 3 -46 8 -60 11 -14 3 -45 8 -70 11 -25 3 -56 8 -70 10 -28 6 -456 14 -462 10z m1177 -1118 c54 -28 84 -76 89 -141 3 -42 -22 -131 -46 -166 -12 -17 -154 -175 -189 -210 -8 -9 -44 -48 -80 -86 -35 -39 -111 -122 -169 -184 -58 -63 -112 -122 -120 -131 -8 -10 -58 -63 -110 -120 -52 -57 -102 -111 -110 -120 -19 -22 -196 -214 -230 -250 -14 -14 -42 -47 -63 -73 -21 -26 -46 -47 -55 -47 -9 0 -43 24 -75 53 l-59 52 64 87 c67 91 154 214 483 683 427 607 412 587 468 627 58 42 149 53 202 26z m-657 -421 c2 -5 -24 -51 -57 -103 l-60 -94 -776 0 -775 0 0 -743 0 -742 1330 -1 1330 0 0 743 0 743 -235 0 -235 0 81 98 c45 53 85 99 90 102 4 3 98 5 208 5 227 -1 237 -4 276 -81 20 -38 20 -56 20 -959 0 -862 -1 -923 -18 -948 -9 -15 -29 -35 -44 -44 -25 -16 -114 -18 -1467 -17 -1575 0 -1475 -4 -1520 57 -21 28 -21 32 -22 940 0 502 4 926 8 944 12 44 54 91 89 100 39 11 1773 10 1777 0z m-552 -1092 c43 -25 103 -87 105 -108 1 -7 3 -24 5 -39 11 -97 -191 -168 -461 -163 -77 1 -151 7 -165 13 -30 13 -30 12 40 18 116 8 160 42 199 157 28 82 51 116 91 138 46 25 128 18 186 -16z m521 -1054 c10 -1 14 -15 28 -115 8 -59 35 -106 76 -135 45 -32 68 -71 41 -72 -58 -3 -889 -4 -899 -1 -23 7 -14 24 33 65 55 48 70 81 84 179 6 40 14 75 19 78 7 4 568 5 618 1z" transform="translate(0.000000,512.000000) scale(0.100000,-0.100000)"/><path d="M3380 3943 c-25 -12 -51 -32 -58 -43 -11 -18 -10 -24 10 -40 l23 -19 41 42 c22 23 54 52 70 64 l29 22 -35 -2 c-19 -1 -55 -12 -80 -24z" transform="translate(0.000000,512.000000) scale(0.100000,-0.100000)"/></g></svg>